# xmcd CD database file
#
# Track frame offsets:
#	150
#	17284
#	39735
#	57418
#	71977
#	90608
#	111202
#	129889
#	148342
#	169811
#	187160
#	207838
#	229478
#	254970
#	268554
#	286773
#	306431
#	321034
#
# Disc length: 4522 seconds
#
# Revision: 3
# Processed by: cddbd v1.4PL0 Copyright (c) Steve Scherf et al.
# Submitted via: CDex 1.40Beta5
#
DISCID=1a11a812
DTITLE=Blue Blot - Blunk (The Best Of)
DYEAR=2000
DGENRE=Blues
TTITLE0=No No No
TTITLE1=Bridge To Your Heart
TTITLE2=Who Is He And What Is He To You
TTITLE3=Yo Yo Man
TTITLE4=Hold The Line
TTITLE5=Shopping For Love
TTITLE6=September
TTITLE7=I'll Be Home On Christmas Day
TTITLE8=Where Do We Go From Here
TTITLE9=Pretty Good
TTITLE10=These Arms Of Mine
TTITLE11=IRS Blues
TTITLE12=Nothing Like A Woman
TTITLE13=Put Some Rhythm In My Blues
TTITLE14=Closing In On The Fire
TTITLE15=With You In Mind
TTITLE16=Dance To The Blunk
TTITLE17=Hole In The Sky
EXTD=YEAR: 2000 ID3G:   0
EXTT0=
EXTT1=
EXTT2=
EXTT3=
EXTT4=
EXTT5=
EXTT6=
EXTT7=
EXTT8=
EXTT9=
EXTT10=
EXTT11=
EXTT12=
EXTT13=
EXTT14=
EXTT15=
EXTT16=
EXTT17=
PLAYORDER=
